#N canvas 480 25 831 847 12;
#X obj 29 714 ofDraw;
#X obj 21 28 ofSetup;
#X obj 81 30 bng 15 250 50 0 empty empty empty 17 7 0 10 #fcfcfc #000000 #000000;
#X obj 25 328 ofUpdate;
#X obj 25 356 ofelia f \; ofSeedRandom(30) \; mesh:clear() \; for i = 1 \, uiAmount do \; \; local position = ofVec3f(ofMap(ofNoise(ofRandom(600) \, ofGetElapsedTimef()*0.006) \, 0 \, 1 \, uiPos1 \, uiPos2) \, ofMap(ofNoise(ofRandom(600) \, ofGetElapsedTimef()*0.006) \, 0 \, 1 \, uiPos3 \, uiPos4) \, ofMap(ofNoise(ofRandom(600) \, ofGetElapsedTimef()*0.006) \, 0 \, 1 \, uiPos5 \, uiPos6)) \; \; mesh:addVertex(position:vec3()) \; mesh:addColor(ofFloatColor(1)) \; end \; \; for i = 0 \, mesh:getVertices():size()-1 do \; local position = ofVec3f(mesh:getVertex(i)) \; for j = 0 \, mesh:getVertices():size()-1 do \; local jdistance = ofVec3f(mesh:getVertex(j)) \; local distance = position:distance(jdistance) \; if distance < uiDistance then \; mesh:addIndex(i) \; mesh:addIndex(j) \; end \; end \; end \;;
#X f 105;
#X obj 21 99 ofelia f \; mesh = ofMesh() \; uiAmount = 100 \; uiPos1 = -1700 \; uiPos2 = 1700 \; uiPos3 = -800 \; uiPos4 = 800 \; uiPos5 = -50 \; uiPos6 = 50 \; uiDistance = 150 \; uiPoints = true \; \; ofSetBackgroundColor(0) \; ofSetFrameRate(50) \; mesh:setMode(OF_PRIMITIVE_LINES) \;;
#X obj 412 810 spigot;
#X obj 446 767 tgl 19 0 empty empty empty 0 -10 0 12 #fcfcfc #000000 #000000 0 1;
#X obj 480 757 sel 0;
#X obj 492 795 bng 19 250 50 0 empty empty empty 0 -10 0 12 #fcfcfc #000000 #000000;
#X obj 597 786 r stop;
#X msg 597 810 0;
#X obj 480 733 r dropoff;
#X floatatom 347 202 5 0 0 0 - - - 0;
#X obj 348 85 vsl 15 100 1.5 255 0 0 empty \$0-speccolor empty 0 -9 0 10 #fcfcfc #000000 #000000 0 1;
#X obj 371 276 ofelia define -k \$0-colorspec;
#A __set M.myBoolean = true \; M.colorspec = 42 \; M.myString = "Foo" \; M.myTable = {1 \, 2 \, 3 \, 4} \; function M.myFunction(f) \; return f * 2 \; end;
#X msg 347 222 colorspec \$1;
#X obj 29 743 ofelia f \; local o = require("\$0-colorspec") \; ofTranslate(ofGetWidth()/2 \, ofGetHeight()/2) \; if uiPoints then \; for i = 0 \, mesh:getVertices():size()-1 do \; ofSetColor(o.colorspec) \; ofDrawSphere(mesh:getVertex(i) \, 3) \; end \; end \; mesh:draw() \;;
#X obj 436 89 line;
#X obj 436 35 r dropoff;
#X msg 436 65 0 \, 255 1000;
#X obj 644 732 bng 19 250 50 0 empty hide_const Hide\ Constelations 0 -10 0 12 #fcfcfc #000000 #000000;
#X msg 644 756 0;
#X obj 720 752 bng 19 250 50 0 empty show_const Hide\ Constelations 0 -10 0 12 #fcfcfc #000000 #000000;
#X msg 720 776 1;
#X connect 0 0 6 0;
#X connect 1 0 5 0;
#X connect 2 0 5 0;
#X connect 3 0 4 0;
#X connect 6 0 17 0;
#X connect 7 0 6 1;
#X connect 8 0 9 0;
#X connect 9 0 7 0;
#X connect 10 0 11 0;
#X connect 11 0 7 0;
#X connect 12 0 8 0;
#X connect 13 0 16 0;
#X connect 14 0 13 0;
#X connect 16 0 15 0;
#X connect 18 0 14 0;
#X connect 19 0 20 0;
#X connect 20 0 18 0;
#X connect 21 0 22 0;
#X connect 22 0 7 0;
#X connect 23 0 24 0;
#X connect 24 0 7 0;
