#N canvas 134 73 951 620 12;
#X declare -path ofelia/abs;
#X declare -path iemnet;
#X declare -path osc;
#N canvas 0 63 1440 809 patch_internals 1;
#X obj 410 102 cnv 19 310 300 empty empty Circle\ Controls 20 12 0 12 #c6ffc7 #404040 0;
#X obj 435 131 hsl 128 15 1 30 0 1 \$0-amount \$0circles-amount Circles\ Amount\ (1-30) 5 8 0 10 #ffffff #000000 #000000 0 1;
#X obj 435 171 hsl 128 15 0 3 0 1 \$0-powX \$0x-power X\ Power\ (0-3) 5 8 0 10 #ffffff #000000 #000000 0 1;
#X obj 435 208 hsl 128 15 0 3 0 1 \$0-powY \$0y-power Y\ Power\ (0-3) 5 8 0 10 #ffffff #000000 #000000 0 1;
#X obj 435 245 hsl 128 15 0 3 0 1 \$0-powZ \$0z-power Z\ Power\ (0-3) 5 8 0 10 #ffffff #000000 #000000 0 1;
#X obj 435 282 hsl 128 15 0 100 0 1 \$0-radius \$0circle-radius Radius\ (0-100) 5 8 0 10 #ffffff #000000 #000000 0 1;
#X obj 435 319 hsl 128 15 -1 1 0 1 \$0-posX \$0circle-xcoor X\ Coordinate\ (-1-1) 5 8 0 10 #ffffff #000000 #000000 4700 1;
#X obj 434 359 hsl 128 15 -1 1 0 1 \$0-posY \$0circle-ycoor Y\ Coordinate\ (-1-1) 5 8 0 10 #ffffff #000000 #000000 4700 1;
#X floatatom 432 260 5 0 0 0 - - - 0;
#X floatatom 432 334 5 0 0 0 - - - 0;
#X floatatom 431 374 5 0 0 0 - - - 0;
#X floatatom 432 223 5 0 0 0 - - - 0;
#X floatatom 432 297 5 0 0 0 - - - 0;
#X floatatom 432 186 5 0 0 0 - - - 0;
#X floatatom 432 147 5 0 0 0 - - - 0;
#X obj 720 101 cnv 19 310 300 empty empty Square\ &\ Patricle\ Controls 20 12 0 12 #feffc6 #404040 0;
#X obj 908 168 bng 19 250 50 0 \$0-square-hide start_window Square\ Hide 0 -10 0 10 #fcfcfc #000000 #000000;
#X obj 736 187 hsl 128 15 0 100 0 0 \$0-radiussquare \$0radius-square Radius\ Square\ (0-100) 5 8 0 10 #fcfcfc #000000 #000000 0 1;
#X obj 737 231 hsl 128 15 0.012 1.2 1 0 \$0-squareintencity \$0-square-intencity Intencity\ (0-1.2) 5 8 0 10 #fcfcfc #000000 #000000 0 1;
#X obj 737 145 hsl 128 15 0 1500 0 0 \$0-squaresize-1 \$0-squaresize-null Square\ Size\ (0-1000) 5 8 0 10 #fcfcfc #000000 #000000 0 1;
#X floatatom 734 247 5 0 0 0 - - - 0;
#X floatatom 733 207 5 0 0 0 - - - 0;
#X floatatom 734 165 5 0 0 0 - - - 0;
#X obj 737 272 hsl 128 15 35 50 1 0 noiseamnt \$0-particles-amount particles\ amount\ (35-50) 5 8 0 10 #fcfcfc #000000 #000000 0 1;
#X floatatom 734 288 5 0 0 0 - - - 0;
#X obj 722 403 cnv 19 310 300 empty empty Spectrogram\ Controls 20 12 0 12 #c6feff #404040 0;
#X obj 754 456 vsl 15 128 0 1 0 1 vol empty Volume -10 -9 0 12 #ffffff #000000 #000000 500 1;
#X obj 742 602 hsl 128 15 0 255 0 0 \$0-speccolor \$0-loadbang-255 Spectrogram\ Color 5 8 0 10 #c6feff #000000 #000000 0 1;
#X obj 741 663 bng 19 250 50 0 \$0-hidespectrogram empty Hide\ Spectrogram 0 -10 0 12 #fcfcfc #000000 #000000;
#N canvas 0 22 450 278 (subpatch) 0;
#X array soundSpectrum1 100 float 3;
#A 0 0 0 0 0 0 0 0 0 0 0 0 0 0 0 0 0 0 0 0 0 0 0 0 0 0 0 0 0 0 0 0 0 0 0 0 0 0 0 0 0 0 0 0 0 0 0 0 0 0 0 0 0 0 0 0 0 0 0 0 0 0 0 0 0 0 0 0 0 0 0 0 0 0 0 0 0 0 0 0 0 0 0 0 0 0 0 0 0 0 0 0 0 0 0 0 0 0 0 0 0;
#X coords 0 1 100 -1 200 140 1;
#X restore 810 446 graph;
#X floatatom 739 619 5 0 0 0 - - - 0;
#X obj 101 102 cnv 19 310 300 empty empty General\ Controls 20 12 0 12 #ffe3c6 #404040 0;
#X obj 120 196 bng 19 250 50 0 play akaiplay Play\ Ableton 0 -10 0 10 #fcfcfc #000000 #000000;
#X obj 120 239 bng 19 250 50 0 stop final Stop\ Ableton 0 -10 0 10 #fcfcfc #000000 #000000;
#X obj 120 153 bng 19 250 50 0 BPMstart akaibpm BPM\ START 0 -10 0 10 #fcfcfc #000000 #000000;
#X obj 207 153 bng 19 250 50 0 \$0-createwindow akaicreate Create\ Window 0 -10 0 10 #fcfcfc #000000 #000000;
#X obj 207 196 bng 19 250 50 0 \$0-destroywindow akaidestroy Destroy\ Window 0 -10 0 10 #fcfcfc #000000 #000000;
#X obj 101 403 cnv 19 310 300 empty empty PD\ To\ Ableton 20 12 0 12 #e3c6ff #404040 0;
#X obj 411 402 cnv 19 310 300 empty empty General\ Controls 20 12 0 12 #c7c6ff #404040 0;
#N canvas 1053 25 214 610 internals 0;
#X obj 0 0 cnv 19 200 106 empty empty Needed\ paths/libraries 20 12 0 12 #e0e0e0 #404040 0;
#X obj 17 47 declare -path ofelia/abs;
#X obj 17 24 declare -path iemnet;
#X obj 0 107 cnv 19 200 200 empty empty Visuals 20 12 0 12 #bbbbbb #404040 0;
#N canvas 37 171 989 534 particles 0;
#X obj 23 67 of.draw;
#X msg 78 58 draw point;
#X floatatom 169 54 5 0 60 0 - - - 0;
#X floatatom 283 86 5 -10 40 0 - - - 0;
#X text 284 70 noise amount;
#X msg 460 193 time \$1;
#X floatatom 460 169 5 0 0 0 - - - 0;
#X obj 460 136 i;
#X obj 494 138 + 1;
#X obj 460 108 metro 40;
#X obj 460 79 tgl 15 0 empty NoiseAnm empty 17 7 0 10 #fcfcfc #000000 #000000 0 1;
#X text 477 76 animate;
#X obj 50 126 of.noiseplane 10 10 line, f 37;
#X msg 22 315 position 1400 850 -100;
#X msg 22 336 orientation 0 0 0;
#X obj 22 295 loadbang;
#X obj 91 158 loadbang;
#X obj 342 136 loadbang;
#X msg 343 173 40;
#X obj 644 171 hsl 162 19 0 45 0 0 empty animationspeed empty -2 -10 0 12 #fcfcfc #000000 #000000 0 1;
#X msg 273 200 0;
#X obj 459 57 loadbang;
#X obj 410 35 hsl 162 19 35 50 1 0 empty empty empty -2 -10 0 12 #fcfcfc #000000 #000000 0 1;
#X msg 412 72 40 \$1;
#X obj 412 96 -;
#X text 168 7 grid size (it can crash). It has a limit in 60 to prevent it., f 30;
#X text 552 78 Animation controls;
#X msg 64 226 mode \$1;
#X msg 160 272 6;
#X obj 641 118 loadbang;
#X msg 22 357 scale 75 35 15;
#X floatatom 643 198 5 0 0 0 - - - 0;
#X msg 642 145 40;
#X obj 602 -8 r vinylVol;
#X obj 712 8 r MelodicSamplesVol;
#X obj 708 142 line;
#X obj 711 94 bng 19 250 50 0 empty empty empty 0 -10 0 12 #fcfcfc #000000 #000000;
#X obj 788 87 del 550;
#X obj 712 72 sel 1;
#X msg 712 50 1;
#X msg 788 117 5 \, 35 500;
#X msg 711 116 35 \, 5 500;
#X msg 563 457 3;
#X floatatom 533 300 5 0 0 0 - - - 0;
#X obj 533 321 sel 0 120;
#X obj 680 392 bng 19 250 50 0 empty empty empty 0 -10 0 12 #fcfcfc #000000 #000000;
#X obj 533 343 bng 19 250 50 0 empty empty empty 0 -10 0 12 #fcfcfc #000000 #000000;
#X text 17 404 The of.noiseplane defines a Lua class called "M" that generates a 3D plane mesh with noise-based animation. The mesh can be manipulated in terms of position \, orientation \, scale \, and texture mapping. The mesh can also be rendered in different modes such as fill \, point \, and line. The code can be controlled through various functions and arguments.;
#X text 612 301 This changes from the particles to the lines when the fx comes on, f 21;
#X obj 577 254 r dropfxOn;
#X obj 602 16 * 35;
#X msg 642 446 50;
#X msg 532 370 35;
#X msg 720 454 35;
#X obj 720 430 r play;
#X obj 720 478 s \$0-particles-amount;
#X text 782 406 This is for when the user plays "play". The particles go to 35, f 20;
#X connect 0 0 12 0;
#X connect 1 0 12 0;
#X connect 2 0 12 1;
#X connect 3 0 12 2;
#X connect 5 0 12 0;
#X connect 6 0 5 0;
#X connect 7 0 8 0;
#X connect 7 0 6 0;
#X connect 8 0 7 1;
#X connect 9 0 7 0;
#X connect 10 0 9 0;
#X connect 13 0 12 0;
#X connect 14 0 12 0;
#X connect 15 0 13 0;
#X connect 15 0 14 0;
#X connect 15 0 30 0;
#X connect 16 0 28 0;
#X connect 17 0 18 0;
#X connect 17 0 20 0;
#X connect 18 0 3 0;
#X connect 19 0 9 1;
#X connect 19 0 31 0;
#X connect 20 0 2 0;
#X connect 21 0 10 0;
#X connect 22 0 23 0;
#X connect 22 0 2 0;
#X connect 23 0 24 0;
#X connect 24 0 3 0;
#X connect 27 0 12 0;
#X connect 28 0 27 0;
#X connect 29 0 32 0;
#X connect 30 0 12 0;
#X connect 32 0 19 0;
#X connect 33 0 50 0;
#X connect 35 0 19 0;
#X connect 36 0 37 0;
#X connect 36 0 41 0;
#X connect 37 0 40 0;
#X connect 38 0 36 0;
#X connect 39 0 38 0;
#X connect 40 0 35 0;
#X connect 41 0 35 0;
#X connect 42 0 27 0;
#X connect 43 0 44 0;
#X connect 44 0 46 0;
#X connect 44 1 45 0;
#X connect 45 0 42 0;
#X connect 45 0 51 0;
#X connect 46 0 28 0;
#X connect 46 0 52 0;
#X connect 49 0 43 0;
#X connect 50 0 22 0;
#X connect 51 0 22 0;
#X connect 52 0 22 0;
#X connect 53 0 55 0;
#X connect 54 0 53 0;
#X restore 23 133 pd particles;
#N canvas 176 106 1264 583 circles 0;
#X obj 27 256 ofDraw;
#X obj 27 33 ofSetup;
#X obj 87 35 bng 15 250 50 0 empty empty empty 17 7 0 10 #fcfcfc #000000 #000000;
#N canvas 929 283 511 566 get 0;
#X obj 67 79 ofelia f \; amount = a \;;
#X obj 67 167 t b f;
#X obj 113 167 t b f;
#X obj 67 194 pack 0 0 0;
#X obj 67 320 ofelia f \; radius = a \;;
#X obj 67 423 t b f;
#X obj 67 450 pack 0 0;
#X obj 67 223 ofelia f \; power:set(a[1] \, a[2] \, a[3]) \;;
#X obj 67 479 ofelia f \; position:set(a[1]*ofGetWidth() \, a[2]*ofGetHeight()) \;;
#X f 53;
#X obj 67 48 r \$0-amount;
#X obj 67 139 r \$0-powX;
#X obj 141 139 r \$0-powY;
#X obj 215 139 r \$0-powZ;
#X obj 67 288 r \$0-radius;
#X obj 67 389 r \$0-posX;
#X obj 141 389 r \$0-posY;
#X connect 1 0 3 0;
#X connect 1 1 3 1;
#X connect 2 0 3 0;
#X connect 2 1 3 2;
#X connect 3 0 7 0;
#X connect 5 0 6 0;
#X connect 5 1 6 1;
#X connect 6 0 8 0;
#X connect 9 0 0 0;
#X connect 10 0 3 0;
#X connect 11 0 1 0;
#X connect 12 0 2 0;
#X connect 13 0 4 0;
#X connect 14 0 6 0;
#X connect 15 0 5 0;
#X restore 260 74 pd get ui;
#X obj 27 285 ofelia f \; ofPushMatrix() \; cam:beginCamera() \; ofTranslate(position:vec2()) \; local rad = radius \; for i = 0 \, amount-1 do \; local noisex = ofNoise((ofGetElapsedTimef()+i) * power.x) \; local noisey = ofNoise((ofGetElapsedTimef()+i) * power.y) \; local noisez = ofNoise((ofGetElapsedTimef()+i) * power.z) \; local x = ofGetWidth() / 2 * noisex \; local y = ofGetHeight() / 2 * noisey \; local z = ofGetHeight() / 2 * noisez \; ofNoFill() \; ofSetColor(255) \; ofDrawCircle(x \, y \, z \, rad) \; rad = rad + i \; end \; cam:endCamera() \; ofPopMatrix() \;;
#X obj 260 122 r \$0-hidecircles;
#X msg 260 150 0;
#X obj 260 98 r \$0-loadbang-0;
#X obj 260 191 s \$0-circlesnull;
#X obj 550 207 line;
#X obj 493 85 r snareOn;
#X obj 622 141 del 200;
#X msg 545 173 2 \, 12 200;
#X msg 622 173 12 \, 6 100;
#X obj 596 84 tgl 19 0 empty empty empty 0 -10 0 12 #fcfcfc #000000 #000000 0 1;
#X msg 578 57 1;
#X msg 610 57 0;
#X obj 569 112 spigot;
#X obj 578 35 bng 19 250 50 0 empty start_window Start\ Window\ On/OFff 0 -10 0 12 #fcfcfc #000000 #000000;
#X obj 610 35 bng 19 250 50 0 empty endeverything empty 0 -10 0 12 #fcfcfc #000000 #000000;
#X obj 550 254 s \$0-circlesnull;
#X text 465 324 This code creates a 3D animation of noise-based circles that move and change in size over time. The circles are drawn using the ofDrawCircle function and the camera perspective is adjusted to provide a 3D view., f 45;
#X obj 475 526 line;
#X obj 475 483 r kickOn;
#X msg 475 504 0.22 \, 0.252 100;
#X msg 476 435 20;
#X obj 475 556 s \$0-circlesnull;
#X obj 475 458 s \$0-radiusSquare;
#X obj 616 510 line;
#X obj 616 464 r hihatOn;
#X msg 616 487 0.22 \, 0.252 100;
#X obj 616 562 s \$0-circlesnull;
#X obj 27 64 ofelia f \; amount = 12 \; power = ofVec3f(0.14 \, 0.18 \, 0) \; radius = 0 \; position = ofVec2f(-500 \, -400) \; \; cam = ofEasyCam() \; bHide = false \; \; ofSetLineWidth(1) \; ofSetCircleResolution(128) \;;
#X msg 1167 649 -0.25;
#X obj 899 376 line;
#X floatatom 896 404 5 0 0 0 - - - 0;
#X obj 953 263 r MelodicSamplesVol;
#X obj 885 285 sel 0 1;
#X obj 836 304 bng 19 250 50 0 empty empty empty 0 -10 0 12 #fcfcfc #000000 #000000;
#X obj 1187 181 r vinylVol;
#X floatatom 1187 229 5 0 0 0 - - - 0;
#X obj 964 290 pipe 500;
#X obj 1195 393 bng 19 250 50 0 empty play empty 0 -10 0 12 #fcfcfc #000000 #000000;
#X obj 1020 135 line;
#X obj 1020 159 int;
#X obj 1020 89 bng 19 250 50 0 empty empty empty 0 -10 0 12 #fcfcfc #000000 #000000;
#X obj 1019 68 sel 1;
#X obj 1187 252 int;
#X floatatom 1187 276 5 0 0 0 - - - 0;
#X obj 1260 212 * 15;
#X floatatom 1260 236 5 0 0 0 - - - 0;
#X obj 1260 259 int;
#X floatatom 1260 283 5 0 0 0 - - - 0;
#X obj 935 546 line;
#X obj 1002 451 r MelodicSamplesVol;
#X obj 934 473 sel 0 1;
#X obj 887 498 bng 19 250 50 0 empty empty empty 0 -10 0 12 #fcfcfc #000000 #000000;
#X obj 1162 568 bng 19 250 50 0 empty empty empty 0 -10 0 12 #fcfcfc #000000 #000000;
#X obj 1019 45 r \$0-2DropOn;
#X msg 1020 111 15 \, 0 2000;
#X msg 1216 428 9;
#X msg 824 334 0 \, 0.2 1000;
#X msg 980 331 0.2 \, 0 500;
#X msg 1216 505 0.07;
#X obj 1013 478 pipe 200;
#X msg 1029 519 0.11 \, 0 299;
#X msg 873 522 0 \, 0.11 200;
#X obj 1186 208 * 5;
#X obj 932 677 bng 19 250 50 0 empty empty empty 0 -10 0 12 #fcfcfc #000000 #000000;
#X msg 958 680 0;
#X msg 876 711 5;
#X msg 912 711 0.047;
#X msg 967 711 10;
#X obj 932 650 sel 0 1;
#X obj 932 627 r droppart12;
#X obj 1012 661 r dropoff;
#X floatatom 1012 685 5 0 0 0 - - - 0;
#X obj 1013 711 sel 0;
#X obj 1011 738 bng 19 250 50 0 empty empty empty 0 -10 0 12 #fcfcfc #000000 #000000;
#X obj 769 731 s \$0circles-amount;
#X obj 966 764 s \$0circle-radius;
#X obj 912 735 s \$0z-power;
#X obj 1262 305 s \$0circles-amount;
#X obj 1020 183 s \$0circle-radius;
#X obj 1216 452 s \$0circle-radius;
#X obj 1225 544 s \$0z-power;
#X obj 1187 330 s \$0circle-radius;
#X obj 1167 673 s \$0circle-xcoor;
#X obj 1166 696 s \$0circle-ycoor;
#X obj 935 570 s \$0y-power;
#X obj 897 428 s \$0x-power;
#X text 829 160 These in the right are different triggers, f 23;
#X connect 0 0 4 0;
#X connect 1 0 32 0;
#X connect 2 0 32 0;
#X connect 5 0 6 0;
#X connect 6 0 8 0;
#X connect 7 0 6 0;
#X connect 10 0 17 0;
#X connect 11 0 13 0;
#X connect 12 0 9 0;
#X connect 13 0 9 0;
#X connect 14 0 17 1;
#X connect 15 0 14 0;
#X connect 16 0 14 0;
#X connect 17 0 11 0;
#X connect 17 0 12 0;
#X connect 18 0 15 0;
#X connect 19 0 16 0;
#X connect 23 0 24 0;
#X connect 24 0 22 0;
#X connect 25 0 27 0;
#X connect 29 0 30 0;
#X connect 30 0 28 0;
#X connect 33 0 87 0;
#X connect 33 0 88 0;
#X connect 34 0 35 0;
#X connect 35 0 90 0;
#X connect 36 0 37 0;
#X connect 37 0 38 0;
#X connect 37 1 38 0;
#X connect 38 0 41 0;
#X connect 38 0 61 0;
#X connect 39 0 67 0;
#X connect 39 0 49 0;
#X connect 40 0 47 0;
#X connect 41 0 62 0;
#X connect 42 0 63 0;
#X connect 42 0 33 0;
#X connect 42 0 60 0;
#X connect 43 0 44 0;
#X connect 44 0 83 0;
#X connect 45 0 59 0;
#X connect 46 0 45 0;
#X connect 47 0 48 0;
#X connect 48 0 86 0;
#X connect 49 0 50 0;
#X connect 50 0 51 0;
#X connect 51 0 52 0;
#X connect 52 0 82 0;
#X connect 53 0 89 0;
#X connect 54 0 55 0;
#X connect 55 0 56 0;
#X connect 55 1 56 0;
#X connect 56 0 64 0;
#X connect 56 0 66 0;
#X connect 58 0 46 0;
#X connect 59 0 43 0;
#X connect 60 0 84 0;
#X connect 61 0 34 0;
#X connect 62 0 34 0;
#X connect 63 0 85 0;
#X connect 64 0 57 0;
#X connect 64 0 65 0;
#X connect 65 0 53 0;
#X connect 66 0 53 0;
#X connect 67 0 40 0;
#X connect 68 0 70 0;
#X connect 68 0 71 0;
#X connect 68 0 72 0;
#X connect 69 0 81 0;
#X connect 69 0 79 0;
#X connect 69 0 80 0;
#X connect 70 0 79 0;
#X connect 71 0 81 0;
#X connect 72 0 80 0;
#X connect 73 0 68 0;
#X connect 73 1 69 0;
#X connect 74 0 73 0;
#X connect 75 0 76 0;
#X connect 76 0 77 0;
#X connect 77 0 78 0;
#X connect 78 0 69 0;
#X restore 23 156 pd circles;
#N canvas 10 243 454 239 squares 0;
#N canvas 18 58 1005 785 square 0;
#X obj 554 48 ofDraw;
#X obj 161 -38 ofelia d -k \$0-squares;
#A __set;
#X floatatom 116 -161 5 0 0 0 - \$0-sizex - 0;
#X floatatom 195 -161 5 0 0 0 - \$0-sizey - 0;
#X floatatom 279 -103 5 0 0 0 - \$0-amounts - 0;
#X floatatom 116 -111 5 0 0 0 - \$0-scale - 0;
#X floatatom 195 -111 5 0 0 0 - \$0-rotation - 0;
#X msg 116 -141 sizex \$1;
#X msg 195 -141 sizey \$1;
#X msg 116 -91 scale \$1;
#X msg 195 -91 rotation \$1;
#X msg 263 -141 amounts \$1;
#X obj 192 127 vsl 19 162 0 2000 0 0 \$0-sizex empty Size\ X 0 -9 0 12 #dfdfdf #000000 #000000 0 1;
#X obj 242 127 vsl 19 162 0 2000 0 0 \$0-sizey empty Size\ Y 0 -9 0 12 #dfdfdf #000000 #000000 0 1;
#X obj 370 127 vsl 19 162 5 100 0 0 \$0-amounts \$0-radiussquare Radius 0 -9 0 12 #dfdfdf #000000 #000000 0 1;
#X obj 419 127 vsl 19 162 0.01 1 1 0 \$0-scale \$0-squareintencity Intencity 0 -9 0 12 #dfdfdf #000000 #000000 0 1;
#X obj 131 127 vsl 19 162 0 3000 0 0 \$0-rotation empty Rotation 0 -9 0 12 #dfdfdf #000000 #000000 0 1;
#X msg 772 -133 80;
#X msg 803 -133 0.9;
#X obj 130 71 line;
#X msg 742 -133 750;
#X obj 802 -56 s \$0-squarestate;
#X obj 309 27 r \$0-squarestate;
#X obj 772 -163 bng 19 250 50 0 empty \$0-squares-init empty 0 -10 0 12 #fcfcfc #000000 #000000;
#X obj 308 52 unpack f f f;
#X obj 849 -163 bng 19 250 50 0 empty \$0-square-hide empty 0 -10 0 12 #fcfcfc #000000 #000000;
#X msg 849 -133 0;
#X msg 881 -133 0;
#X msg 903 -133 0;
#X obj 802 -94 pack f f f;
#X obj 881 -163 loadbang;
#X obj 291 127 vsl 19 162 0 2000 0 0 \$0-sizesquares \$0-squaresize-1 Equal\ Size 0 -9 0 12 #dfdfdf #000000 #000000 0 1;
#X obj 132 28 bng 19 250 50 0 empty play empty 0 -10 0 12 #fcfcfc #000000 #000000;
#X obj 552 74 ofelia f \; local o = require("\$0-squares") \; ofTranslate(ofGetWidth()/2 \, ofGetHeight()/2) \; ofNoFill() \; ofSetLineWidth(2) \; ofSetRectMode(OF_RECTMODE_CENTER) \; for i = 1 \, o.amounts do \; ofRotateDeg(o.rotation) \; ofScale(o.scale) \; ofDrawRectangle(0 \, 0 \, o.sizex \, o.sizey) \; end \;;
#X obj 458 -70 line;
#X obj 502 -156 r eighth_time;
#X floatatom 502 -137 5 0 0 0 - - - 0;
#X obj 429 -116 spigot;
#X obj 458 -137 tgl 19 0 empty empty empty 0 -10 0 12 #fcfcfc #000000 #000000 0 1;
#X msg 372 -92 0;
#X msg 401 -92 1;
#X obj 542 -137 hsl 162 19 0 400 0 0 empty empty empty -2 -10 0 12 #fcfcfc #000000 #000000 0 1;
#X floatatom 575 -116 5 0 0 0 - - - 0;
#X floatatom 380 -137 5 0 0 0 - - - 0;
#X obj 429 -156 r kickOn2;
#X obj 372 -116 sel 0 1;
#X obj 401 -70 bng 19 250 50 0 empty empty empty 0 -10 0 12 #fcfcfc #000000 #000000;
#X obj 430 -137 bng 19 250 50 0 empty empty empty 0 -10 0 12 #fcfcfc #000000 #000000;
#X obj 502 -116 delay 300;
#X msg 430 -92 0.8 \, 0.99 100;
#X msg 532 -92 0.99 \, 0.8 100;
#X obj 561 -48 s \$0-kickon;
#X text 726 -27 This sends back the square to the "standard" shape pr sends all the values to 0, f 33;
#X text 404 -17 This is the part that makes the squares react to the kick, f 32;
#X text 112 -6 These are the assigned variables;
#X text 550 248 This code draws multiple squares with different sizes \, rotations \, and scaling factors using openFrameworks library in Lua programming language. The specific parameters for each square are defined in a module named \$0-squares., f 45;
#X msg 114 336 0 \, 1000 500;
#X obj 114 360 line;
#X obj 112 311 bng 19 250 50 0 empty show_partspec empty 0 -10 0 12 #fcfcfc #000000 #000000;
#X obj 47 419 s show_partspec-2;
#X msg 305 521 12;
#X msg 244 638 500;
#X msg 177 599 1600;
#X obj 354 586 bng 19 250 50 0 empty empty empty 0 -10 0 12 #fcfcfc #000000 #000000;
#X msg 341 623 0.975;
#X obj 951 739 line;
#X obj 945 629 bng 19 250 50 0 empty empty empty 0 -10 0 12 #fcfcfc #000000 #000000;
#X obj 915 415 r bassOn;
#X obj 902 454 tgl 19 0 empty empty empty 0 -10 0 12 #fcfcfc #000000 #000000 0 1;
#X obj 853 487 spigot;
#X obj 783 470 metro;
#X obj 763 435 tgl 19 0 empty empty empty 0 -10 0 12 #fcfcfc #000000 #000000 0 1;
#X obj 733 402 loadbang;
#X obj 813 400 r eighth_time;
#X floatatom 813 424 5 0 0 0 - - - 0;
#X obj 783 494 bng 19 250 50 0 empty empty empty 0 -10 0 12 #fcfcfc #000000 #000000;
#X obj 853 558 bng 19 250 50 0 empty empty empty 0 -10 0 12 #fcfcfc #000000 #000000;
#X obj 977 509 / 2;
#X floatatom 907 535 5 0 0 0 - - - 0;
#X obj 945 605 del \$1;
#X msg 446 712 980;
#X obj 465 658 bng 19 250 50 0 empty empty empty 0 -10 0 12 #fcfcfc #000000 #000000;
#X msg 485 718 35;
#X floatatom 919 66 5 0 0 0 - - - 0;
#X obj 919 87 sel 0 120;
#X obj 953 111 bng 19 250 50 0 empty empty empty 0 -10 0 12 #fcfcfc #000000 #000000;
#X obj 919 109 bng 19 250 50 0 empty empty empty 0 -10 0 12 #fcfcfc #000000 #000000;
#X obj 919 44 r dropfxOn;
#X msg 968 153 0;
#X msg 527 723 0.978;
#X msg 832 653 0.979 \, 0.98 \$1;
#X msg 949 655 0.98 \, 0.979 \$1;
#X obj 963 215 bng 19 250 50 0 empty \$0-square-hide empty 0 -10 0 12 #fcfcfc #000000 #000000;
#X obj 1017 187 r stop;
#X obj 460 432 r \$0-DropOneTwo;
#X obj 460 456 sel 0 1;
#X msg 131 49 0 \, 2000 1e+06;
#X obj 996 128 r dropoff;
#X obj 996 152 sel 0;
#X obj 996 176 bng 19 250 50 0 empty empty empty 0 -10 0 12 #fcfcfc #000000 #000000;
#X obj 608 595 r sqr_drop1;
#X obj 618 657 r sqr_drop2;
#X connect 0 0 33 0;
#X connect 2 0 7 0;
#X connect 3 0 8 0;
#X connect 4 0 11 0;
#X connect 5 0 9 0;
#X connect 6 0 10 0;
#X connect 7 0 1 0;
#X connect 8 0 1 0;
#X connect 9 0 1 0;
#X connect 10 0 1 0;
#X connect 11 0 1 0;
#X connect 17 0 29 1;
#X connect 18 0 29 2;
#X connect 19 0 16 0;
#X connect 20 0 29 0;
#X connect 22 0 24 0;
#X connect 23 0 20 0;
#X connect 23 0 17 0;
#X connect 23 0 18 0;
#X connect 24 0 31 0;
#X connect 24 1 14 0;
#X connect 24 2 15 0;
#X connect 25 0 26 0;
#X connect 25 0 27 0;
#X connect 25 0 28 0;
#X connect 26 0 29 0;
#X connect 27 0 29 1;
#X connect 28 0 29 2;
#X connect 30 0 26 0;
#X connect 30 0 27 0;
#X connect 30 0 28 0;
#X connect 31 0 13 0;
#X connect 31 0 12 0;
#X connect 32 0 96 0;
#X connect 35 0 36 0;
#X connect 36 0 48 1;
#X connect 37 0 49 0;
#X connect 37 0 48 0;
#X connect 38 0 37 1;
#X connect 39 0 38 0;
#X connect 40 0 38 0;
#X connect 40 0 46 0;
#X connect 41 0 36 0;
#X connect 41 0 42 0;
#X connect 43 0 45 0;
#X connect 44 0 43 0;
#X connect 44 0 47 0;
#X connect 45 0 39 0;
#X connect 45 1 40 0;
#X connect 47 0 37 0;
#X connect 48 0 50 0;
#X connect 49 0 34 0;
#X connect 50 0 34 0;
#X connect 56 0 57 0;
#X connect 58 0 56 0;
#X connect 60 0 14 0;
#X connect 61 0 12 0;
#X connect 62 0 13 0;
#X connect 63 0 60 0;
#X connect 63 0 62 0;
#X connect 63 0 61 0;
#X connect 63 0 64 0;
#X connect 64 0 15 0;
#X connect 65 0 15 0;
#X connect 66 0 91 0;
#X connect 67 0 68 0;
#X connect 68 0 69 1;
#X connect 69 0 76 0;
#X connect 70 0 75 0;
#X connect 71 0 70 0;
#X connect 72 0 71 0;
#X connect 73 0 74 0;
#X connect 74 0 70 1;
#X connect 74 0 77 0;
#X connect 75 0 69 0;
#X connect 76 0 79 0;
#X connect 76 0 90 0;
#X connect 77 0 78 0;
#X connect 78 0 79 1;
#X connect 78 0 91 0;
#X connect 78 0 90 0;
#X connect 79 0 66 0;
#X connect 80 0 31 0;
#X connect 81 0 80 0;
#X connect 81 0 82 0;
#X connect 81 0 89 0;
#X connect 82 0 14 0;
#X connect 83 0 84 0;
#X connect 84 0 86 0;
#X connect 84 1 85 0;
#X connect 85 0 88 0;
#X connect 86 0 81 0;
#X connect 87 0 83 0;
#X connect 88 0 15 0;
#X connect 88 0 31 0;
#X connect 88 0 14 0;
#X connect 89 0 15 0;
#X connect 90 0 65 0;
#X connect 91 0 65 0;
#X connect 92 0 88 0;
#X connect 93 0 92 0;
#X connect 94 0 95 0;
#X connect 95 0 81 0;
#X connect 95 1 63 0;
#X connect 96 0 19 0;
#X connect 97 0 98 0;
#X connect 98 0 99 0;
#X connect 99 0 92 0;
#X connect 100 0 63 0;
#X connect 101 0 81 0;
#X coords 0 -1 1 1 400 200 2 100 100;
#X restore 35 15 pd square internals;
#X restore 23 179 pd squares;
#N canvas 518 64 673 300 image 0;
#X obj 28 179 ofDraw;
#X obj 27 19 ofSetup;
#X obj 88 21 bng 15 250 50 0 empty empty empty 17 7 0 10 #fcfcfc #000000 #000000;
#X obj 27 79 pdcontrol;
#X obj 27 107 ofelia f \; image = ofImage(a) \;;
#X msg 27 49 dir 0 data/woman2.png;
#X obj 122 18 r introhihatbang;
#X obj 27 221 ofelia f \; image:draw(ofGetWidth()/2 - image:getWidth()/2 \, ofGetHeight()/2 - image:getHeight()/2) \; image:resize(150 \, 225) \;;
#X f 88;
#X obj 29 200 spigot;
#X obj 78 200 tgl 19 0 empty empty empty 0 -10 0 12 #fcfcfc #000000 #000000 0 1;
#X obj 77 155 loadbang;
#X msg 77 179 1;
#X text 196 71 These lines open an image (in the data folder \, called woman2.png. The bang makes the image reload which we used to make some kind of glitch effect., f 52;
#X obj 326 42 r kickOn;
#X connect 0 0 8 0;
#X connect 1 0 5 0;
#X connect 2 0 5 0;
#X connect 3 0 4 0;
#X connect 5 0 3 0;
#X connect 6 0 2 0;
#X connect 8 0 7 0;
#X connect 9 0 8 1;
#X connect 10 0 11 0;
#X connect 11 0 9 0;
#X connect 13 0 2 0;
#X restore 23 202 pd image;
#N canvas 1120 660 240 195 spectrogram 0;
#N canvas 441 187 1071 718 spectrogram_internals 0;
#X obj 594 378 ofDraw;
#X obj 19 410 ofSetup;
#X obj 79 412 bng 15 250 50 0 empty empty empty 17 7 0 10 #fcfcfc #000000 #000000;
#X obj 744 142 pdcontrol;
#X obj 234 385 ofUpdate;
#X obj 527 17 loadbang;
#X obj 744 263 readsf~ 2;
#X msg 832 231 0;
#X msg 744 231 open \$1 \, 1;
#X obj 744 171 t b s;
#X obj 744 200 symbol;
#N canvas 606 153 266 159 spectrum 0;
#X obj 31 26 inlet~;
#X obj 31 57 rfft~;
#X obj 77 92 inlet;
#X obj 27 119 tabwrite~ soundSpectrum1;
#X obj 29 88 *~ 15;
#X text 126 37 This is the FFT analysis shown, f 21;
#X connect 0 0 1 0;
#X connect 1 0 4 0;
#X connect 1 1 4 0;
#X connect 2 0 3 0;
#X connect 4 0 3 0;
#X restore 818 367 pd spectrum;
#X obj 743 293 *~;
#X obj 773 293 *~;
#X obj 819 263 r vol;
#X msg 597 3 \; pd dsp 1;
#X obj 284 415 s upd;
#X obj 924 384 r upd;
#X obj 234 415 t b b;
#X obj 19 445 ofelia f \; fft = ofTable() \; ofSetBackgroundColor(0) \; soundSpectrum = ofTable() \; bands = 500 \; for i = 1 \, 1024 do \; fft[i] = 0 \; end \;;
#X floatatom 106 262 5 0 0 0 - - - 0;
#X obj 113 126 vsl 15 100 1.5 400 0 0 empty \$0-speccolor Red 0 -9 0 10 #ffc7c6 #000000 #000000 0 1;
#X obj 125 313 ofelia define -k \$0-colorspec;
#A __set;
#X msg 106 282 colorr \$1;
#X floatatom 185 264 5 0 0 0 - - - 0;
#X obj 191 126 vsl 15 100 1.5 400 0 0 empty \$0-speccolor Blue 0 -9 0 10 #c6feff #000000 #000000 0 1;
#X msg 185 284 colorg \$1;
#X floatatom 260 264 5 0 0 0 - - - 0;
#X obj 268 126 vsl 15 100 1.5 400 0 0 empty \$0-speccolor Green 0 -9 0 10 #c6ffc7 #000000 #000000 0 1;
#X msg 260 284 colorb \$1;
#X obj 234 448 ofelia f \; soundSpectrum = ofArray("soundSpectrum1"):get(0) \; for i = 1 \, bands do \; fft[i] = fft[i] * 0.2 \; if fft[i] < soundSpectrum[i] then \; fft[i] = soundSpectrum[i] \; end \; end \;;
#X obj 105 16 line;
#X msg 140 -31 1;
#X msg 107 -32 0;
#X msg 106 -8 0 \, 255 2000;
#X msg 196 -8 255 \, 0 2000;
#X msg 747 114 dir 0 data/woman.wav, f 23;
#X obj 747 91 r vocalOn;
#X obj 819 93 tgl 19 0 empty empty empty 0 -10 0 12 #fcfcfc #000000 #000000 0 1;
#X obj 512 179 r predropriserVol;
#X floatatom 512 203 5 0 0 0 - - - 0;
#X floatatom 512 226 5 0 0 0 - - - 0;
#X obj 512 248 * 255;
#X obj 512 319 abs;
#X floatatom 512 343 5 0 0 0 - - - 0;
#X obj 512 271 * -1;
#X obj 512 295 + 255;
#X msg 297 -9 0 \, 255 100;
#X obj 297 15 line;
#X obj 105 -56 r endeverything;
#X text 103 42 This line is triggered when everything is ending, f 22;
#X text 296 41 This line is triggered during the drop, f 21;
#X text 506 144 This is a button on the main;
#X text 564 240 This is the volume of the riser, f 16;
#X text 124 336 This are the color variables;
#X text 27 580 This code visualizes sound spectrum data using polylines with color-coded vertices. The color scheme for the vertices is defined in a module named \$0-colorspec.;
#X text 822 143 This line loads the audio to be displayed and sends it to a an FFT analysis in pd spectrum, f 29;
#X obj 594 410 ofelia f \; local m = require("\$0-colorspec") \; ofTranslate(ofGetWidth()/8 \, ofGetHeight()/2) \; for i = 0 \, bands-1 \, 512 do \; polyline = ofPolyline() \; for j = 0 \, bands-1 do \; ofSetColor(m.colorr \, m.colorg \, m.colorb) \; polyline:addVertex(j*5.75 \, i - fft[j+1] * 100) \; end \; polyline:draw() \; end \;;
#X obj 918 217 r stop;
#X obj 918 241 bng 19 250 50 0 empty empty empty 0 -10 0 12 #fcfcfc #000000 #000000;
#X floatatom 977 316 5 0 0 0 - - - 0;
#X obj 916 283 float;
#X msg 956 241 0;
#X obj 976 284 + 1;
#X obj 977 340 % 2;
#X floatatom 979 367 5 0 0 0 - - - 0;
#X obj 991 400 sel 0;
#X obj 991 450 bng 19 250 50 0 empty empty empty 0 -10 0 12 #fcfcfc #000000 #000000;
#X obj 389 98 r \$0-2DropOn;
#X obj 389 122 sel 1;
#X obj 389 146 bng 19 250 50 0 empty empty empty 0 -10 0 12 #fcfcfc #000000 #000000;
#X obj 389 194 line;
#X msg 389 170 255 \, 0 2000;
#X obj 505 107 s particle2secbang;
#X obj 754 12 line;
#X obj 754 -42 r dropoff;
#X msg 754 -12 255 \, 0 100;
#X obj 878 34 bng 19 250 50 0 empty empty empty 0 -10 0 12 #fcfcfc #000000 #000000;
#X obj 397 -45 r \$0-DropOn;
#X obj 324 -61 sel 1;
#X obj 324 -37 bng 19 250 50 0 empty empty empty 0 -10 0 12 #fcfcfc #000000 #000000;
#X msg 440 22 255;
#X obj 470 10 bng 19 250 50 0 empty empty empty 0 -10 0 12 #fcfcfc #000000 #000000;
#X obj 470 -14 r play;
#X obj 826 327 bng 19 250 50 0 final empty empty 0 -10 0 12 #fcfcfc #000000 #000000;
#X connect 0 0 57 0;
#X connect 1 0 19 0;
#X connect 2 0 19 0;
#X connect 3 0 9 0;
#X connect 4 0 18 0;
#X connect 5 0 15 0;
#X connect 6 0 12 0;
#X connect 6 1 13 0;
#X connect 6 2 10 0;
#X connect 6 2 84 0;
#X connect 7 0 6 0;
#X connect 8 0 6 0;
#X connect 9 0 10 0;
#X connect 9 1 10 1;
#X connect 10 0 8 0;
#X connect 12 0 11 0;
#X connect 13 0 11 0;
#X connect 14 0 12 1;
#X connect 14 0 13 1;
#X connect 17 0 11 1;
#X connect 18 0 30 0;
#X connect 18 1 16 0;
#X connect 20 0 23 0;
#X connect 21 0 20 0;
#X connect 23 0 22 0;
#X connect 24 0 26 0;
#X connect 25 0 24 0;
#X connect 26 0 22 0;
#X connect 27 0 29 0;
#X connect 28 0 27 0;
#X connect 29 0 22 0;
#X connect 31 0 21 0;
#X connect 31 0 25 0;
#X connect 31 0 28 0;
#X connect 32 0 34 0;
#X connect 33 0 35 0;
#X connect 34 0 31 0;
#X connect 35 0 31 0;
#X connect 36 0 3 0;
#X connect 37 0 36 0;
#X connect 37 0 38 0;
#X connect 39 0 40 0;
#X connect 40 0 42 0;
#X connect 41 0 45 0;
#X connect 42 0 41 0;
#X connect 43 0 44 0;
#X connect 45 0 46 0;
#X connect 46 0 43 0;
#X connect 47 0 48 0;
#X connect 48 0 21 0;
#X connect 48 0 25 0;
#X connect 48 0 28 0;
#X connect 49 0 33 0;
#X connect 58 0 59 0;
#X connect 59 0 61 0;
#X connect 60 0 64 0;
#X connect 61 0 63 0;
#X connect 62 0 61 1;
#X connect 63 0 60 0;
#X connect 63 0 61 1;
#X connect 64 0 65 0;
#X connect 65 0 66 0;
#X connect 66 0 67 0;
#X connect 67 0 7 0;
#X connect 68 0 69 0;
#X connect 69 0 70 0;
#X connect 70 0 72 0;
#X connect 70 0 73 0;
#X connect 71 0 28 0;
#X connect 71 0 25 0;
#X connect 71 0 21 0;
#X connect 72 0 71 0;
#X connect 74 0 25 0;
#X connect 74 0 28 0;
#X connect 74 0 21 0;
#X connect 75 0 76 0;
#X connect 75 0 77 0;
#X connect 76 0 74 0;
#X connect 78 0 79 0;
#X connect 79 0 80 0;
#X connect 80 0 47 0;
#X connect 81 0 28 0;
#X connect 81 0 25 0;
#X connect 81 0 21 0;
#X connect 83 0 81 0;
#X connect 83 0 82 0;
#X coords 0 -1 1 1 200 150 2 100 100;
#X restore 12 26 pd spectrogram_internals;
#X restore 23 225 pd spectrogram;
#N canvas 335 196 798 241 general_loadbangs 0;
#X obj 13 12 loadbang;
#X msg 13 36 255;
#X obj 13 60 s \$0-loadbang-255;
#X obj 60 211 ofWindow;
#X msg 26 189 destroy;
#X obj 26 164 bng 19 250 50 0 empty \$0-destroywindow empty 0 -10 0 12 #fcfcfc #000000 #000000;
#X obj 92 164 bng 19 250 50 0 empty \$0-createwindow empty 0 -10 0 12 #fcfcfc #000000 #000000;
#X msg 92 189 setPosition 0 0 \, setSize ofGetWidth ofGetHeight \, create;
#X obj 147 5 r stop;
#X msg 147 29 0;
#X obj 147 78 s \$0circles-amount;
#X obj 147 53 s \$0x-power;
#X obj 148 104 s \$0y-power;
#X obj 147 128 s \$0z-power;
#X obj 148 151 s \$0circle-radius;
#X obj 293 55 s \$0-squaresize-null;
#X obj 293 80 s \$0radius-square;
#X obj 295 104 s \$0-square-intencity;
#X msg 221 26 35;
#X obj 262 23 s \$0-particles-amount;
#X text 12 82 Gives the spec color;
#X obj 320 145 s \$0-loadbang-255;
#X msg 284 128 255;
#X obj 550 26 r \$0-circle-hide;
#X msg 550 54 0;
#X obj 551 107 s \$0circles-amount;
#X obj 551 82 s \$0x-power;
#X obj 552 133 s \$0y-power;
#X obj 551 157 s \$0z-power;
#X obj 552 180 s \$0circle-radius;
#X connect 0 0 1 0;
#X connect 1 0 2 0;
#X connect 4 0 3 0;
#X connect 5 0 4 0;
#X connect 6 0 7 0;
#X connect 7 0 3 0;
#X connect 8 0 9 0;
#X connect 8 0 18 0;
#X connect 8 0 22 0;
#X connect 9 0 10 0;
#X connect 9 0 11 0;
#X connect 9 0 12 0;
#X connect 9 0 13 0;
#X connect 9 0 14 0;
#X connect 9 0 15 0;
#X connect 9 0 16 0;
#X connect 9 0 17 0;
#X connect 18 0 19 0;
#X connect 22 0 21 0;
#X connect 23 0 24 0;
#X connect 24 0 26 0;
#X connect 24 0 25 0;
#X connect 24 0 27 0;
#X connect 24 0 28 0;
#X connect 24 0 29 0;
#X restore 23 248 pd general_loadbangs;
#X obj -1 295 cnv 19 200 272 empty empty Audio/OSC 20 12 0 12 #dfdfdf #404040 0;
#N canvas 279 87 1161 785 channel_triggers 0;
#X msg -39 308 0;
#X msg -3 307 127;
#X obj -38 236 tgl 19 0 empty introwvocalsTrigger empty 0 -10 0 12 #fcfcfc #000000 #000000 0 1;
#X obj -38 260 sel 0 1;
#X obj -37 342 ctlout 1;
#X text -40 211 intro w vocals;
#X msg 716 291 0;
#X msg 752 290 127;
#X obj 717 219 tgl 19 0 empty groupintromelody empty 0 -10 0 12 #fcfcfc #000000 #000000 0 1;
#X obj 717 243 sel 0 1;
#X obj 718 325 ctlout 2;
#X text 715 194 groupintromelody;
#X msg 434 298 0;
#X msg 470 297 127;
#X obj 435 226 tgl 19 0 empty introhihat empty 0 -10 0 12 #fcfcfc #000000 #000000 0 1;
#X obj 435 250 sel 0 1;
#X text 433 201 intro hihats;
#X obj 436 332 ctlout 3;
#X msg 28 462 0;
#X msg 64 461 127;
#X obj 29 390 tgl 19 0 empty riser empty 0 -10 0 12 #fcfcfc #000000 #000000 0 1;
#X obj 29 414 sel 0 1;
#X text 27 365 riser;
#X obj 30 496 ctlout 4;
#X msg 846 291 0;
#X msg 882 290 127;
#X obj 847 219 tgl 19 0 empty DropMelody empty 0 -10 0 12 #fcfcfc #000000 #000000 0 1;
#X obj 847 243 sel 0 1;
#X text 853 195 Drop melody;
#X msg 436 687 0;
#X msg 472 686 127;
#X obj 437 615 tgl 19 0 empty DropEffect empty 0 -10 0 12 #fcfcfc #000000 #000000 0 1;
#X obj 437 639 sel 0 1;
#X text 435 590 Drop effect;
#X msg 554 684 0;
#X msg 590 683 127;
#X obj 555 612 tgl 19 0 empty DropFalls empty 0 -10 0 12 #fcfcfc #000000 #000000 0 1;
#X obj 555 636 sel 0 1;
#X text 553 587 Drop falls;
#X msg 94 312 0;
#X msg 130 311 127;
#X obj 95 240 tgl 19 0 empty DropVocals empty 0 -10 0 12 #fcfcfc #000000 #000000 0 1;
#X obj 95 264 sel 0 1;
#X text 94 213 Drop vocals;
#X obj 848 325 ctlout 6;
#X obj 438 721 ctlout 8;
#X obj 556 718 ctlout 9;
#X obj 96 346 ctlout 10;
#X msg 307 690 0;
#X msg 343 689 127;
#X obj 308 618 tgl 19 0 empty DropBass empty 0 -10 0 14 #fcfcfc #000000 #000000 0 1;
#X obj 308 642 sel 0 1;
#X obj 309 724 ctlout 7;
#X text 306 590 Drop bass;
#X floatatom -35 111 5 0 0 0 - - - 0;
#X obj -35 76 ctlin, f 20;
#X floatatom 29 116 5 0 0 0 - - - 0;
#X floatatom 96 113 5 0 0 0 - - - 0;
#X obj 27 174 bng 19 250 50 0 empty empty empty 0 -10 0 12 #fcfcfc #000000 #000000;
#X msg 320 295 0;
#X msg 356 294 127;
#X obj 321 223 tgl 19 0 empty drumsGroup empty 0 -10 0 12 #fcfcfc #000000 #000000 0 1;
#X obj 321 247 sel 0 1;
#X obj 322 329 ctlout 5;
#X text 319 198 drums Group;
#X floatatom 330 107 5 0 0 0 - - - 0;
#X obj 330 72 ctlin, f 20;
#X floatatom 394 112 5 0 0 0 - - - 0;
#X floatatom 461 109 5 0 0 0 - - - 0;
#X obj 392 167 bng 19 250 50 0 empty empty empty 0 -10 0 12 #fcfcfc #000000 #000000;
#X floatatom 741 106 5 0 0 0 - - - 0;
#X obj 741 71 ctlin, f 20;
#X floatatom 805 111 5 0 0 0 - - - 0;
#X floatatom 872 108 5 0 0 0 - - - 0;
#X obj 803 166 bng 19 250 50 0 empty empty empty 0 -10 0 12 #fcfcfc #000000 #000000;
#X floatatom 410 498 5 0 0 0 - - - 0;
#X obj 410 463 ctlin, f 20;
#X floatatom 474 503 5 0 0 0 - - - 0;
#X floatatom 541 500 5 0 0 0 - - - 0;
#X obj 472 558 bng 19 250 50 0 empty empty empty 0 -10 0 12 #fcfcfc #000000 #000000;
#X obj 27 147 sel 32;
#X obj 392 143 sel 33;
#X obj 803 142 sel 34;
#X obj 472 534 sel 35;
#X connect 0 0 4 0;
#X connect 1 0 4 0;
#X connect 2 0 3 0;
#X connect 3 0 0 0;
#X connect 3 1 1 0;
#X connect 6 0 10 0;
#X connect 7 0 10 0;
#X connect 8 0 9 0;
#X connect 9 0 6 0;
#X connect 9 1 7 0;
#X connect 12 0 17 0;
#X connect 13 0 17 0;
#X connect 14 0 15 0;
#X connect 15 0 12 0;
#X connect 15 1 13 0;
#X connect 18 0 23 0;
#X connect 19 0 23 0;
#X connect 20 0 21 0;
#X connect 21 0 18 0;
#X connect 21 1 19 0;
#X connect 24 0 44 0;
#X connect 25 0 44 0;
#X connect 26 0 27 0;
#X connect 27 0 24 0;
#X connect 27 1 25 0;
#X connect 29 0 45 0;
#X connect 30 0 45 0;
#X connect 31 0 32 0;
#X connect 32 0 29 0;
#X connect 32 1 30 0;
#X connect 34 0 46 0;
#X connect 35 0 46 0;
#X connect 36 0 37 0;
#X connect 37 0 34 0;
#X connect 37 1 35 0;
#X connect 39 0 47 0;
#X connect 40 0 47 0;
#X connect 41 0 42 0;
#X connect 42 0 39 0;
#X connect 42 1 40 0;
#X connect 48 0 52 0;
#X connect 49 0 52 0;
#X connect 50 0 51 0;
#X connect 51 0 48 0;
#X connect 51 1 49 0;
#X connect 55 0 54 0;
#X connect 55 1 56 0;
#X connect 55 2 57 0;
#X connect 56 0 80 0;
#X connect 58 0 2 0;
#X connect 58 0 41 0;
#X connect 58 0 20 0;
#X connect 59 0 63 0;
#X connect 60 0 63 0;
#X connect 61 0 62 0;
#X connect 62 0 59 0;
#X connect 62 1 60 0;
#X connect 66 0 65 0;
#X connect 66 1 67 0;
#X connect 66 2 68 0;
#X connect 67 0 81 0;
#X connect 69 0 61 0;
#X connect 69 0 14 0;
#X connect 71 0 70 0;
#X connect 71 1 72 0;
#X connect 71 2 73 0;
#X connect 72 0 82 0;
#X connect 74 0 8 0;
#X connect 74 0 26 0;
#X connect 76 0 75 0;
#X connect 76 1 77 0;
#X connect 76 2 78 0;
#X connect 77 0 83 0;
#X connect 79 0 50 0;
#X connect 79 0 36 0;
#X connect 79 0 31 0;
#X connect 80 0 58 0;
#X connect 81 0 69 0;
#X connect 82 0 74 0;
#X connect 83 0 79 0;
#X restore 23 323 pd channel_triggers;
#N canvas 762 269 225 225 playstop 0;
#X obj 12 30 bng 19 250 50 0 empty play empty 0 -10 0 12 #fcfcfc #000000 #000000;
#X obj 12 78 ctlout 11;
#X msg 12 54 127;
#X text 11 9 play;
#X obj 135 34 bng 19 250 50 0 empty stop empty 0 -10 0 12 #fcfcfc #000000 #000000;
#X msg 135 58 127;
#X obj 135 82 ctlout 12;
#X text 134 13 stopp;
#X obj 53 147 bng 19 250 50 0 empty empty empty 0 -10 0 12 #fcfcfc #000000 #000000;
#X msg 52 180 0;
#X connect 0 0 2 0;
#X connect 2 0 1 0;
#X connect 4 0 5 0;
#X connect 5 0 6 0;
#X connect 8 0 9 0;
#X connect 9 0 1 0;
#X restore 23 346 pd playstop;
#N canvas 63 399 883 300 hihats 0;
#X obj 162 18 bng 19 250 50 0 empty empty empty 0 -10 0 12 #fcfcfc #000000 #000000;
#X msg 173 74 62;
#X msg 177 -44 1;
#X obj 179 -19 metro 500;
#X msg 217 -42 0;
#X msg 224 72 100;
#X floatatom 259 74 5 0 0 0 - - - 0;
#X obj 197 41 t b b b;
#X obj 208 149 makenote;
#X floatatom 292 181 5 0 0 0 - - - 0;
#X msg 426 35 flush;
#X msg 325 79 500;
#X obj 80 -73 key;
#X floatatom 80 -24 5 0 0 0 - - - 0;
#X obj 80 -1 sel 32;
#X obj 211 206 noteout 14;
#X connect 0 0 7 0;
#X connect 1 0 8 0;
#X connect 2 0 3 0;
#X connect 3 0 0 0;
#X connect 4 0 3 0;
#X connect 5 0 8 1;
#X connect 6 0 8 2;
#X connect 7 0 1 0;
#X connect 7 1 5 0;
#X connect 7 2 6 0;
#X connect 7 2 11 0;
#X connect 8 0 15 0;
#X connect 8 1 15 1;
#X connect 9 0 15 2;
#X connect 10 0 8 0;
#X connect 11 0 8 2;
#X connect 12 0 13 0;
#X connect 13 0 14 0;
#X restore 23 507 pd hihats;
#N canvas 537 175 224 261 serum 0;
#X text 17 9 drop melody woop woop;
#X floatatom 22 87 5 0 0 0 - - - 0;
#X obj 22 52 ctlin, f 20;
#X floatatom 86 92 5 0 0 0 - - - 0;
#X floatatom 153 89 5 0 0 0 - - - 0;
#X obj 27 155 hsl 162 19 1.27 127 0 0 empty introvocalsupermix empty -2 -10 0 12 #fcfcfc #000000 #000000 0 1;
#X floatatom 24 179 5 0 0 0 - - - 0;
#X obj 24 206 ctlout 14;
#X connect 1 0 5 0;
#X connect 2 0 1 0;
#X connect 2 1 3 0;
#X connect 2 2 4 0;
#X connect 5 0 6 0;
#X connect 6 0 7 0;
#X restore 23 369 pd serum;
#N canvas 55 315 335 303 send 0;
#X obj 22 263 tgl 19 0 empty empty empty 0 -10 0 12 #fcfcfc #000000 #000000 0 1;
#X msg 214 188 disconnect;
#X obj 137 56 tgl 19 0 empty empty empty 0 -10 0 12 #fcfcfc #000000 #000000 0 1;
#X obj 137 104 random 10;
#X floatatom 137 128 5 0 0 0 - - - 0;
#X obj 137 80 metro 1500;
#X msg 23 21 connect 127.0.0.1 7400;
#X msg 74 172 send /chan2 \$1;
#X obj 22 239 udpsend;
#X obj 74 196 packOSC;
#X connect 1 0 8 0;
#X connect 2 0 5 0;
#X connect 3 0 4 0;
#X connect 4 0 7 0;
#X connect 5 0 3 0;
#X connect 6 0 8 0;
#X connect 7 0 9 0;
#X connect 8 0 0 0;
#X connect 9 0 8 0;
#X restore 23 392 pd send OSC;
#N canvas 82 249 496 240 ambientcrackle 0;
#X obj 129 133 makenote;
#X obj 132 190 noteout;
#X floatatom 213 165 5 0 0 0 - - - 0;
#X text 192 130 pitch velocity duration;
#X floatatom 35 105 5 0 0 0 - - - 0;
#X msg 404 143 stop;
#X obj 137 8 notein;
#X floatatom 108 54 5 0 0 0 - - - 0;
#X floatatom 166 55 5 0 0 0 - - - 0;
#X floatatom 216 54 5 0 0 0 - - - 0;
#X floatatom 166 102 5 0 0 0 - - - 0;
#X obj 166 78 * 2;
#X connect 0 0 1 0;
#X connect 0 0 4 0;
#X connect 0 1 1 1;
#X connect 2 0 1 2;
#X connect 5 0 0 0;
#X connect 6 0 7 0;
#X connect 6 1 8 0;
#X connect 6 2 9 0;
#X connect 7 0 0 0;
#X connect 8 0 11 0;
#X connect 9 0 0 2;
#X connect 10 0 0 1;
#X connect 11 0 10 0;
#X restore 23 415 pd ambientcrackle;
#N canvas 398 56 965 754 receive 0;
#X obj 15 148 unpack s f;
#X floatatom 83 183 5 0 0 0 - - - 0;
#X obj 83 206 tgl 19 0 vocalOn empty empty 0 -10 0 12 #fcfcfc #000000 #000000 0 1;
#X msg 16 47 port 1001;
#X text 13 22 vocal on;
#X obj 176 91 udpreceive 8888;
#X obj 175 151 unpack s f;
#X floatatom 243 186 5 0 0 0 - - vinylVol 0;
#X text 173 25 Vinyl Volume;
#X msg 176 50 port 1002;
#X obj 366 91 udpreceive 8888;
#X obj 365 151 unpack s f;
#X floatatom 434 182 5 0 0 0 - - MelodicSamplesVol 0;
#X text 363 25 Sample Melody Volume;
#X msg 366 50 port 1003;
#X obj 558 87 udpreceive 8888;
#X msg 558 46 port 1004;
#X obj 608 185 bng 19 250 50 0 introhihatbang empty empty 0 -10 0 12 #fcfcfc #000000 #000000;
#X obj 557 147 unpack s f f;
#X obj 753 91 udpreceive 8888;
#X msg 753 50 port 1005;
#X obj 752 151 unpack s f;
#X floatatom 817 200 5 0 0 0 - - predropriserVol 0;
#X obj 20 334 udpreceive 8888;
#X obj 19 394 unpack s f;
#X floatatom 87 429 5 0 0 0 - - - 0;
#X obj 87 452 tgl 19 0 kickOn2 empty empty 0 -10 0 12 #fcfcfc #000000 #000000 0 1;
#X text 750 25 pre drop riser;
#X text 17 268 Kick on;
#X msg 20 293 port 1006;
#X obj 202 336 udpreceive 8888;
#X obj 201 396 unpack s f;
#X floatatom 269 431 5 0 0 0 - - - 0;
#X obj 269 454 tgl 19 0 empty empty empty 0 -10 0 12 #fcfcfc #000000 #000000 0 1;
#X msg 202 295 port 1007;
#X obj 396 336 udpreceive 8888;
#X obj 395 396 unpack s f;
#X floatatom 463 431 5 0 0 0 - - - 0;
#X msg 396 295 port 1008;
#X text 199 270 Snare on;
#X text 393 270 Hihat on;
#X obj 15 574 udpreceive 8888;
#X obj 14 634 unpack s f;
#X floatatom 82 669 5 0 0 0 - - woopwoopOn 0;
#X obj 302 1033;
#X msg 15 533 port 1010;
#X obj 280 585 udpreceive 8888;
#X obj 279 645 unpack s f;
#X floatatom 347 680 5 0 0 0 - - bassOn 0;
#X text 12 508 woop woop melody on;
#X text 277 519 Bass on;
#X msg 280 544 port 1011;
#X obj 512 578 udpreceive 8888;
#X obj 511 638 unpack s f;
#X floatatom 579 673 5 0 0 0 - - dropfxOn 0;
#X msg 512 537 port 1012;
#X obj 668 706 tgl 19 0 empty empty empty 0 -10 0 12 #fcfcfc #000000 #000000 0 1;
#X obj 763 590 udpreceive 8888;
#X obj 762 650 unpack s f;
#X floatatom 830 685 15 0 0 0 - - - 0;
#X obj 919 718 tgl 19 0 empty empty empty 0 -10 0 12 #fcfcfc #000000 #000000 0 1;
#X text 509 512 Drop Effect on;
#X text 758 509 Exhaust volume;
#X msg 763 549 port 1014;
#X obj 463 495 bng 19 250 50 0 hihatOn empty HiHat 0 -10 0 12 #fcfcfc #000000 #000000;
#X obj 463 454 tgl 19 0 empty empty empty 0 -10 0 12 #fcfcfc #000000 #000000 0 1;
#X obj 270 480 bng 19 250 50 0 snareOn empty empty 0 -10 0 12 #fcfcfc #000000 #000000;
#X obj 88 479 bng 19 250 50 0 kickOn empty empty 0 -10 0 12 #fcfcfc #000000 #000000;
#X obj 969 410;
#X text 555 21 Intro Hihat Trigger;
#X obj 608 354 loadbang;
#X obj 16 88 udpreceive 8888;
#X obj 366 118 unpackOSC;
#X obj 176 118 unpackOSC;
#X obj 16 115 unpackOSC;
#X obj 558 114 unpackOSC;
#X obj 753 118 unpackOSC;
#X obj 396 363 unpackOSC;
#X obj 202 363 unpackOSC;
#X obj 20 361 unpackOSC;
#X obj 15 601 unpackOSC;
#X obj 280 612 unpackOSC;
#X obj 512 605 unpackOSC;
#X obj 763 617 unpackOSC;
#X obj 25 814 udpreceive 8888;
#X obj 24 874 unpack s f;
#X floatatom 92 909 15 0 0 0 - - dropoff 0;
#X obj 181 942 tgl 19 0 \$0-DropOn empty empty 0 -10 0 12 #fcfcfc #000000 #000000 0 1;
#X obj 25 841 unpackOSC;
#X text 22 746 Drop On;
#X msg 25 773 port 1015;
#X obj 260 817 udpreceive 8888;
#X obj 259 877 unpack s f;
#X floatatom 327 912 15 0 0 0 - - - 0;
#X obj 416 945 tgl 19 0 \$0-2DropOn empty empty 0 -10 0 12 #fcfcfc #000000 #000000 0 1;
#X obj 260 844 unpackOSC;
#X text 257 749 2 sec On;
#X msg 260 776 port 1016;
#X obj 522 822 udpreceive 8888;
#X obj 521 882 unpack s f;
#X floatatom 589 917 15 0 0 0 - - droppart12 0;
#X obj 678 950 tgl 19 0 \$0-DropOneTwo empty empty 0 -10 0 12 #fcfcfc #000000 #000000 0 1;
#X obj 522 849 unpackOSC;
#X msg 522 781 port 1017;
#X text 519 754 Drop 1 and 2 parts;
#X connect 0 1 1 0;
#X connect 1 0 2 0;
#X connect 3 0 71 0;
#X connect 5 0 73 0;
#X connect 6 1 7 0;
#X connect 9 0 5 0;
#X connect 10 0 72 0;
#X connect 11 1 12 0;
#X connect 14 0 10 0;
#X connect 15 0 75 0;
#X connect 16 0 15 0;
#X connect 18 1 17 0;
#X connect 19 0 76 0;
#X connect 20 0 19 0;
#X connect 21 1 22 0;
#X connect 23 0 79 0;
#X connect 24 1 25 0;
#X connect 25 0 26 0;
#X connect 26 0 67 0;
#X connect 29 0 23 0;
#X connect 30 0 78 0;
#X connect 31 1 32 0;
#X connect 32 0 33 0;
#X connect 33 0 66 0;
#X connect 34 0 30 0;
#X connect 35 0 77 0;
#X connect 36 1 37 0;
#X connect 37 0 65 0;
#X connect 38 0 35 0;
#X connect 41 0 80 0;
#X connect 42 1 43 0;
#X connect 45 0 41 0;
#X connect 46 0 81 0;
#X connect 47 1 48 0;
#X connect 51 0 46 0;
#X connect 52 0 82 0;
#X connect 53 1 54 0;
#X connect 53 1 56 0;
#X connect 55 0 52 0;
#X connect 57 0 83 0;
#X connect 58 1 59 0;
#X connect 58 1 60 0;
#X connect 63 0 57 0;
#X connect 65 0 64 0;
#X connect 70 0 55 0;
#X connect 70 0 63 0;
#X connect 70 0 51 0;
#X connect 70 0 38 0;
#X connect 70 0 34 0;
#X connect 70 0 29 0;
#X connect 70 0 20 0;
#X connect 70 0 16 0;
#X connect 70 0 14 0;
#X connect 70 0 9 0;
#X connect 70 0 3 0;
#X connect 70 0 45 0;
#X connect 70 0 90 0;
#X connect 70 0 97 0;
#X connect 70 0 103 0;
#X connect 71 0 74 0;
#X connect 72 0 11 0;
#X connect 73 0 6 0;
#X connect 74 0 0 0;
#X connect 75 0 18 0;
#X connect 76 0 21 0;
#X connect 77 0 36 0;
#X connect 78 0 31 0;
#X connect 79 0 24 0;
#X connect 80 0 42 0;
#X connect 81 0 47 0;
#X connect 82 0 53 0;
#X connect 83 0 58 0;
#X connect 84 0 88 0;
#X connect 85 1 86 0;
#X connect 85 1 87 0;
#X connect 88 0 85 0;
#X connect 90 0 84 0;
#X connect 91 0 95 0;
#X connect 92 1 93 0;
#X connect 92 1 94 0;
#X connect 95 0 92 0;
#X connect 97 0 91 0;
#X connect 98 0 102 0;
#X connect 99 1 100 0;
#X connect 99 1 101 0;
#X connect 102 0 99 0;
#X connect 103 0 98 0;
#X restore 23 438 pd receive OSC;
#X obj 23 461 clock;
#N canvas 46 112 858 450 midipad 0;
#X floatatom 25 61 5 0 0 0 - - - 0;
#X obj 25 26 ctlin, f 20;
#X floatatom 89 66 5 0 0 0 - - - 0;
#X floatatom 156 63 5 0 0 0 - - - 0;
#X obj 313 198 bng 19 250 50 0 akaiplay empty empty 0 -10 0 12 #fcfcfc #000000 #000000;
#X obj 87 97 sel 24;
#X floatatom 220 58 5 0 0 0 - - - 0;
#X obj 220 23 ctlin, f 20;
#X floatatom 284 63 5 0 0 0 - - - 0;
#X floatatom 351 60 5 0 0 0 - - - 0;
#X obj 275 184 bng 19 250 50 0 akaistop empty empty 0 -10 0 12 #fcfcfc #000000 #000000;
#X obj 282 94 sel 25;
#X floatatom 398 58 5 0 0 0 - - - 0;
#X obj 398 23 ctlin, f 20;
#X floatatom 462 63 5 0 0 0 - - - 0;
#X floatatom 529 60 5 0 0 0 - - - 0;
#X obj 460 94 sel 26;
#X floatatom 591 62 5 0 0 0 - - - 0;
#X obj 591 27 ctlin, f 20;
#X floatatom 655 67 5 0 0 0 - - - 0;
#X floatatom 722 64 5 0 0 0 - - - 0;
#X obj 652 159 bng 19 250 50 0 akaistart empty empty 0 -10 0 12 #fcfcfc #000000 #000000;
#X obj 653 98 sel 27;
#X floatatom 22 197 5 0 0 0 - - - 0;
#X obj 22 162 ctlin, f 20;
#X floatatom 86 202 5 0 0 0 - - - 0;
#X floatatom 153 199 5 0 0 0 - - - 0;
#X obj 83 294 bng 19 250 50 0 akaidrop empty empty 0 -10 0 12 #fcfcfc #000000 #000000;
#X floatatom 226 267 5 0 0 0 - - - 0;
#X obj 226 232 ctlin, f 20;
#X floatatom 290 272 5 0 0 0 - - - 0;
#X floatatom 357 269 5 0 0 0 - - - 0;
#X obj 287 364 bng 19 250 50 0 akaiend empty empty 0 -10 0 12 #fcfcfc #000000 #000000;
#X floatatom 439 301 5 0 0 0 - - - 0;
#X obj 439 266 ctlin, f 20;
#X floatatom 503 306 5 0 0 0 - - - 0;
#X floatatom 570 303 5 0 0 0 - - - 0;
#X obj 500 398 bng 19 250 50 0 empty empty empty 0 -10 0 12 #fcfcfc #000000 #000000;
#X floatatom 642 302 5 0 0 0 - - - 0;
#X obj 642 267 ctlin, f 20;
#X floatatom 706 307 5 0 0 0 - - - 0;
#X floatatom 773 304 5 0 0 0 - - - 0;
#X obj 703 399 bng 19 250 50 0 empty empty empty 0 -10 0 12 #fcfcfc #000000 #000000;
#X obj 84 233 sel 20;
#X obj 288 303 sel 21;
#X obj 501 337 sel 22;
#X obj 704 338 sel 23;
#X obj 461 119 tgl 19 0 empty empty empty 0 -10 0 12 #fcfcfc #000000 #000000 0 1;
#X obj 459 215 bng 19 250 50 0 akaicreate empty empty 0 -10 0 12 #fcfcfc #000000 #000000;
#X obj 499 219 bng 19 250 50 0 akaidestroy empty empty 0 -10 0 12 #fcfcfc #000000 #000000;
#X obj 461 143 sel 0 1;
#X obj 284 127 tgl 19 0 empty empty empty 0 -10 0 12 #fcfcfc #000000 #000000 0 1;
#X obj 284 151 sel 0 1;
#X obj 87 121 bng 19 250 50 0 akaibpm empty empty 0 -10 0 12 #fcfcfc #000000 #000000;
#X connect 1 0 0 0;
#X connect 1 1 2 0;
#X connect 1 2 3 0;
#X connect 2 0 5 0;
#X connect 5 0 53 0;
#X connect 7 0 6 0;
#X connect 7 1 8 0;
#X connect 7 2 9 0;
#X connect 8 0 11 0;
#X connect 11 0 51 0;
#X connect 13 0 12 0;
#X connect 13 1 14 0;
#X connect 13 2 15 0;
#X connect 14 0 16 0;
#X connect 16 0 47 0;
#X connect 18 0 17 0;
#X connect 18 1 19 0;
#X connect 18 2 20 0;
#X connect 19 0 22 0;
#X connect 22 0 21 0;
#X connect 24 0 23 0;
#X connect 24 1 25 0;
#X connect 24 2 26 0;
#X connect 25 0 43 0;
#X connect 29 0 28 0;
#X connect 29 1 30 0;
#X connect 29 2 31 0;
#X connect 30 0 44 0;
#X connect 34 0 33 0;
#X connect 34 1 35 0;
#X connect 34 2 36 0;
#X connect 35 0 45 0;
#X connect 39 0 38 0;
#X connect 39 1 40 0;
#X connect 39 2 41 0;
#X connect 40 0 46 0;
#X connect 43 0 27 0;
#X connect 44 0 32 0;
#X connect 45 0 37 0;
#X connect 46 0 42 0;
#X connect 47 0 50 0;
#X connect 50 0 49 0;
#X connect 50 1 48 0;
#X connect 51 0 52 0;
#X connect 52 0 10 0;
#X connect 52 1 4 0;
#X restore 23 484 pd midipad;
#X obj -1 536 cnv 19 200 60 empty empty Unused 20 12 0 12 #bbbbbb #404040 0;
#N canvas 139 195 601 207 automata 0;
#X obj 39 33 ca;
#X text 338 40 This is a cellular automata \, It was suopposed to generate melodies depending on the rules (the one we did was XOR \, but we were planing on generating more). We didnt have enough time to implement it., f 33;
#X restore 19 563 pd automata;
#X obj 17 70 declare -path osc;
#X obj 23 270 constellations;
#X restore 105 75 pd internals;
#X obj 112 449 tgl 19 0 introwvocalsTrigger empty Group\ 1\ intro\ w\ vocals 0 -10 0 10 #fcfcfc #000000 #000000 0 1;
#X obj 112 489 tgl 19 0 groupintromelody empty Group\ 2\ intro\ melody 0 -10 0 10 #fcfcfc #000000 #000000 0 1;
#X obj 112 529 tgl 19 0 introhihat empty Intro\ hihat 0 -10 0 10 #fcfcfc #000000 #000000 0 1;
#X obj 112 569 tgl 19 0 riser empty predrop\ riser 0 -10 0 10 #fcfcfc #000000 #000000 0 1;
#X obj 254 449 tgl 19 0 drumsGroup empty Drop\ Drums 0 -10 0 10 #fcfcfc #000000 #000000 0 1;
#X obj 254 489 tgl 19 0 DropMelody empty Drop\ Melody\ group 0 -10 0 10 #fcfcfc #000000 #000000 0 1;
#X obj 112 609 tgl 19 0 DropEffect empty DropEffect 0 -10 0 10 #fcfcfc #000000 #000000 0 1;
#X obj 254 569 tgl 19 0 DropFalls empty DropFalls 0 -10 0 10 #fcfcfc #000000 #000000 0 1;
#X obj 254 609 tgl 19 0 DropVocals empty Drop\ Vocals 0 -10 0 10 #fcfcfc #000000 #000000 0 1;
#X obj 254 529 tgl 19 0 DropBass empty Drop\ DropBass 0 -10 0 10 #fcfcfc #000000 #000000 0 1;
#X obj 116 641 hsl 128 15 0 127 0 0 introvocalsupermix empty introvocal\ supermix 5 8 0 10 #fcfcfc #000000 #000000 0 1;
#X floatatom 113 665 5 0 0 0 - - - 0;
#X obj 428 468 tgl 19 0 empty vocalOn vocal\ ON 0 -10 0 10 #fcfcfc #000000 #000000 0 1;
#X floatatom 426 517 5 0 0 0 - - - 0;
#X obj 429 498 hsl 128 15 0 1 0 0 empty vinylVol vinyl\ Volume\ (0-1) 5 8 0 10 #fcfcfc #000000 #000000 0 1;
#X floatatom 427 561 5 0 0 0 - - - 0;
#X obj 430 543 hsl 128 15 0 1 0 0 empty MelodicSamplesVol Melodic\ Samples\ Vol\ (0-1) 5 8 0 10 #fcfcfc #000000 #000000 0 1;
#X obj 608 468 bng 19 250 50 0 empty introhihatbang Intro\ hihat\ bang 0 -10 0 10 #fcfcfc #000000 #000000;
#X floatatom 426 607 5 0 0 0 - - - 0;
#X obj 429 588 hsl 128 15 0 1 0 0 empty predropriserVol predrop\ riser\ vol\ (0-1) 5 8 0 10 #fcfcfc #000000 #000000 0 1;
#X obj 608 516 bng 19 250 50 0 empty kickOn Kick 0 -10 0 10 #fcfcfc #000000 #000000;
#X obj 608 564 bng 19 250 50 0 empty snareOn Snare 0 -10 0 10 #fcfcfc #000000 #000000;
#X obj 608 612 bng 19 250 50 0 empty hihatOn hihat 0 -10 0 10 #fcfcfc #000000 #000000;
#X obj 886 661 bng 19 250 50 0 hide_const empty Hide\ Constelations 0 -10 0 12 #fcfcfc #000000 #000000;
#X obj 887 617 bng 19 250 50 0 show_const empty Show\ Constelations 0 -10 0 12 #fcfcfc #000000 #000000;
#X obj 908 208 bng 19 250 50 0 sqr_drop1 empty Square\ Drop1 0 -10 0 10 #fcfcfc #000000 #000000;
#X obj 908 248 bng 19 250 50 0 sqr_drop2 empty Square\ Drop2 0 -10 0 10 #fcfcfc #000000 #000000;
#X obj 604 182 bng 19 250 50 0 \$0-circle-hide empty Circle\ Hide 0 -10 0 10 #fcfcfc #000000 #000000;
#X connect 1 0 14 0;
#X connect 2 0 13 0;
#X connect 3 0 11 0;
#X connect 4 0 8 0;
#X connect 5 0 12 0;
#X connect 6 0 9 0;
#X connect 7 0 10 0;
#X connect 17 0 21 0;
#X connect 18 0 20 0;
#X connect 19 0 22 0;
#X connect 23 0 24 0;
#X connect 27 0 30 0;
#X connect 50 0 51 0;
#X connect 54 0 53 0;
#X connect 56 0 55 0;
#X connect 59 0 58 0;
#X coords 0 -1 1 1 935 605 2 100 100;
#X restore 7 6 pd patch_internals;
