#N canvas 612 187 809 565 12;
#X obj 64 15 cnv 30 800 450 empty empty CLOCK 20 12 0 14 #c7c6ff #404040 0;
#X obj 395 66 receive quarter_time;
#X obj 395 90 * 4;
#X floatatom 395 114 5 0 0 0 - - - 0;
#X obj 363 153 metro;
#X obj 316 80 receive ON;
#X obj 363 177 bng 15 250 50 0 empty empty empty 17 7 0 10 #fcfcfc #000000 #000000;
#X obj 363 197 send whole_note;
#X obj 423 154 send whole_time;
#X obj 300 604 bng 15 250 50 0 empty empty empty 17 7 0 10 #fcfcfc #000000 #000000;
#X obj 300 630 int 1;
#X obj 414 667 + 1;
#X floatatom 299 685 5 0 0 0 - - - 0;
#X obj 197 691 loadbang;
#X msg 197 715 1;
#X obj 100 673 receive ON;
#X obj 123 529 receive ON;
#X obj 123 591 bng 15 250 50 0 empty empty empty 17 7 0 10 #fcfcfc #000000 #000000;
#X msg 123 611 -1;
#X obj 48 567 loadbang;
#X text 66 501 measure counter;
#X obj 123 553 sel 0;
#X obj 100 697 sel 0;
#X floatatom 395 758 5 0 0 0 - - - 0;
#X floatatom 395 797 5 0 0 0 - - - 0;
#X obj 683 71 receive quarter_time;
#X floatatom 683 119 5 0 0 0 - - - 0;
#X obj 651 158 metro;
#X obj 584 85 receive ON;
#X obj 651 182 bng 15 250 50 0 empty empty empty 17 7 0 10 #fcfcfc #000000 #000000;
#X obj 683 95 * 2;
#X obj 651 202 send half_note;
#X obj 729 152 send half_time;
#X obj 441 270 receive quarter_time;
#X floatatom 441 318 5 0 0 0 - - - 0;
#X obj 409 357 metro;
#X obj 342 284 receive ON;
#X obj 409 381 bng 15 250 50 0 empty empty empty 17 7 0 10 #fcfcfc #000000 #000000;
#X obj 441 294 / 2;
#X obj 409 401 send eighth_note;
#X obj 704 272 receive quarter_time;
#X floatatom 704 320 5 0 0 0 - - - 0;
#X obj 672 359 metro;
#X obj 605 286 receive ON;
#X obj 672 383 bng 15 250 50 0 empty empty empty 17 7 0 10 #fcfcfc #000000 #000000;
#X obj 672 403 send sixteenth_note;
#X obj 704 296 / 4;
#X obj 173 268 receive quarter_time;
#X floatatom 173 316 5 0 0 0 - - - 0;
#X obj 141 355 metro;
#X obj 74 282 receive ON;
#X obj 141 379 bng 15 250 50 0 empty empty empty 17 7 0 10 #fcfcfc #000000 #000000;
#X obj 173 292 * 1;
#X obj 141 399 send quarter_note;
#X obj 525 1094;
#X obj 314 122 bng 15 250 50 0 empty empty empty 17 7 0 10 #fcfcfc #000000 #000000;
#X obj 163 75 receive quarter_time;
#X floatatom 163 123 5 0 0 0 - - - 0;
#X obj 131 162 metro;
#X obj 84 89 receive ON;
#X obj 131 186 bng 15 250 50 0 empty empty empty 17 7 0 10 #fcfcfc #000000 #000000;
#X obj 82 131 bng 15 250 50 0 empty empty empty 17 7 0 10 #fcfcfc #000000 #000000;
#X obj 163 99 * 16;
#X obj 191 163 send 4bar_time;
#X obj 131 206 send 4bar;
#X obj 300 580 receive 4bar;
#X obj 300 727 % 4;
#X msg 292 887 0;
#X msg 401 887 1;
#X obj 276 930 send note1;
#X obj 385 930 send note2;
#X obj 492 928 send note3;
#X obj 602 927 send note4;
#X obj 281 847 bng 15 250 50 0 empty empty empty 17 7 0 10 #fcfcfc #000000 #000000;
#X obj 354 844 bng 15 250 50 0 empty empty empty 17 7 0 10 #fcfcfc #000000 #000000;
#X obj 397 848 bng 15 250 50 0 empty empty empty 17 7 0 10 #fcfcfc #000000 #000000;
#X obj 512 849 bng 15 250 50 0 empty empty empty 17 7 0 10 #fcfcfc #000000 #000000;
#X msg 508 885 2;
#X msg 618 884 3;
#X obj 303 795 sel 0 1 2 3;
#X obj 300 751 + 0;
#X obj 228 100 bng 15 250 50 0 empty empty empty 17 7 0 10 #fcfcfc #000000 #000000;
#X obj 161 31 bpm_self;
#X obj 44 224 s ON;
#X obj 44 196 tgl 19 0 empty empty empty 0 -10 0 12 #fcfcfc #000000 #000000 0 1;
#X obj 13 117 loadbang;
#X msg 13 141 1;
#X obj 502 343 s eighth_time;
#X connect 1 0 2 0;
#X connect 2 0 3 0;
#X connect 3 0 4 1;
#X connect 3 0 8 0;
#X connect 4 0 6 0;
#X connect 5 0 4 0;
#X connect 5 0 55 0;
#X connect 6 0 7 0;
#X connect 9 0 10 0;
#X connect 10 0 12 0;
#X connect 10 0 11 0;
#X connect 11 0 10 1;
#X connect 12 0 66 0;
#X connect 13 0 14 0;
#X connect 15 0 22 0;
#X connect 16 0 21 0;
#X connect 17 0 18 0;
#X connect 18 0 10 0;
#X connect 19 0 17 0;
#X connect 21 0 17 0;
#X connect 22 0 14 0;
#X connect 25 0 30 0;
#X connect 26 0 27 1;
#X connect 26 0 32 0;
#X connect 27 0 29 0;
#X connect 28 0 27 0;
#X connect 29 0 31 0;
#X connect 30 0 26 0;
#X connect 33 0 38 0;
#X connect 34 0 35 1;
#X connect 34 0 87 0;
#X connect 35 0 37 0;
#X connect 36 0 35 0;
#X connect 37 0 39 0;
#X connect 38 0 34 0;
#X connect 40 0 46 0;
#X connect 41 0 42 1;
#X connect 42 0 44 0;
#X connect 43 0 42 0;
#X connect 44 0 45 0;
#X connect 46 0 41 0;
#X connect 47 0 52 0;
#X connect 48 0 49 1;
#X connect 49 0 51 0;
#X connect 50 0 49 0;
#X connect 51 0 53 0;
#X connect 52 0 48 0;
#X connect 56 0 62 0;
#X connect 57 0 58 1;
#X connect 57 0 63 0;
#X connect 58 0 60 0;
#X connect 59 0 58 0;
#X connect 59 0 61 0;
#X connect 60 0 64 0;
#X connect 62 0 57 0;
#X connect 65 0 9 0;
#X connect 66 0 23 0;
#X connect 66 0 80 0;
#X connect 67 0 69 0;
#X connect 68 0 70 0;
#X connect 73 0 67 0;
#X connect 74 0 68 0;
#X connect 75 0 77 0;
#X connect 76 0 78 0;
#X connect 77 0 71 0;
#X connect 78 0 72 0;
#X connect 79 0 73 0;
#X connect 79 1 74 0;
#X connect 79 2 75 0;
#X connect 79 3 76 0;
#X connect 80 0 24 0;
#X connect 80 0 79 0;
#X connect 81 0 63 0;
#X connect 84 0 83 0;
#X connect 85 0 86 0;
#X connect 86 0 84 0;
