#N canvas 0 25 1280 719 12;
#X obj 240 310 tgl 15 0 empty empty empty 17 7 0 10 #fcfcfc #000000 #000000 0 1;
#X obj 260 310 tgl 15 0 empty empty empty 17 7 0 10 #fcfcfc #000000 #000000 0 1;
#X obj 280 310 tgl 15 0 empty empty empty 17 7 0 10 #fcfcfc #000000 #000000 0 1;
#X obj 300 310 tgl 15 0 empty empty empty 17 7 0 10 #fcfcfc #000000 #000000 0 1;
#X obj 320 310 tgl 15 0 empty empty empty 17 7 0 10 #fcfcfc #000000 #000000 0 1;
#X obj 80 230 sel 1;
#X obj 80 410 XOR;
#X obj 120 410 XOR;
#X obj 160 410 XOR;
#X obj 200 410 XOR;
#X obj 240 410 XOR;
#X obj 120 230 sel 1;
#X obj 160 230 sel 1;
#X obj 200 230 sel 1;
#X obj 240 230 sel 1;
#X floatatom 805 360 5 0 0 0 - - - 0;
#X obj 100 290 f 0;
#X obj 115 70 bng 15 250 50 0 empty empty empty 17 7 0 10 #000000 #61fff7 #000000;
#X obj 750 545 swap;
#X text 105 50 Reset;
#X text 65 90 Big Seed 1-16, f 8;
#X text 115 140 Small Seeds;
#X text 165 50 Speed;
#X obj 720 480 counter 100;
#X obj 720 510 sel 0;
#X obj 775 445 del 20;
#X obj 750 575 /;
#X text 800 565 Calculations in order to generate a random sequence betweeen 0 and 1 based on the count of alive cells, f 36;
#X obj 165 110 nbx 5 15 0.01 1 0 1 empty empty empty 40 5 0 10 #000000 #61fff7 #000000 0.0333333 256;
#X obj 165 70 nbx 5 15 0.5 2 0 1 empty empty empty 40 5 0 10 #000000 #61fff7 #000000 2 256;
#X obj 680 295 r global_clock;
#X obj 790 265 t b f;
#X obj 800 315 *;
#X obj 790 210 swap 1;
#X obj 790 240 /;
#X text 55 15 hardwired to the global clock;
#X obj 200 140 tgl 15 0 empty empty empty 35 15 0 12 #000000 #61fff7 #000000 0 1;
#X obj 95 140 tgl 15 0 empty empty empty 35 15 0 12 #000000 #61fff7 #000000 0 1;
#X obj 240 60 bng 15 250 50 0 empty empty empty 17 7 0 10 #000000 #61fff7 #000000;
#X obj 75 70 tgl 15 0 empty empty empty 35 15 0 12 #000000 #61fff7 #000000 0 1;
#X text 65 50 Start;
#X obj 100 110 nbx 5 15 1 16 0 1 empty empty empty 40 5 0 10 #000000 #61fff7 #000000 4 256;
#X text 165 90 LFO;
#X obj 240 375 s list_trigger_ca;
#X obj 165 475 outlet lfo;
#X obj 55 475 outlet trigger;
#N canvas 0 23 1280 719 global 0;
#X obj 115 -555 s tr1;
#X obj 160 -555 s tr2;
#X obj 205 -555 s tr3;
#X obj 250 -555 s tr4;
#X obj 295 -555 s tr5;
#X obj 340 -555 s tr6;
#X obj 385 -555 s tr7;
#X obj 430 -555 s tr8;
#X obj 475 -555 s tr9;
#X obj 520 -555 s tr10;
#X obj 565 -555 s tr11;
#X obj 610 -555 s tr12;
#X obj 655 -555 s tr13;
#X obj 700 -555 s tr14;
#X obj 745 -555 s tr15;
#X obj 790 -555 s tr16;
#X obj 121 -691 r list_trigger_ca;
#X obj 121 -661 unpack f f f f f f f f f f f f f f f f;
#X connect 16 0 17 0;
#X connect 17 0 0 0;
#X connect 17 1 1 0;
#X connect 17 2 2 0;
#X connect 17 3 3 0;
#X connect 17 4 4 0;
#X connect 17 5 5 0;
#X connect 17 6 6 0;
#X connect 17 7 7 0;
#X connect 17 8 8 0;
#X connect 17 9 9 0;
#X connect 17 10 10 0;
#X connect 17 11 11 0;
#X connect 17 12 12 0;
#X connect 17 13 13 0;
#X connect 17 14 14 0;
#X connect 17 15 15 0;
#X restore 335 520 pd global send;
#X obj 260 60 bng 15 250 50 0 empty empty empty 17 7 0 10 #000000 #61fff7 #000000;
#X obj 280 60 bng 15 250 50 0 empty empty empty 17 7 0 10 #000000 #61fff7 #000000;
#X obj 300 60 bng 15 250 50 0 empty empty empty 17 7 0 10 #000000 #61fff7 #000000;
#X obj 324 60 bng 15 250 50 0 empty empty empty 17 7 0 10 #000000 #61fff7 #000000;
#X text 55 145 Trig;
#X obj 730 160 loadbang;
#X msg 730 190 500;
#X obj 750 605 / 10;
#X obj 250 270 sel 1 2 3 4 5;
#X obj 240 345 pack f f f f f;
#X obj 775 510 random 5;
#X obj 780 390 metro 700;
#X obj 901 263 hsl 162 19 0 800 0 0 empty empty empty -2 -10 0 12 #fcfcfc #000000 #000000 0 1;
#X msg 404 107 62;
#X msg 442 111 65;
#X msg 477 112 67;
#X msg 510 112 69;
#X msg 553 111 72;
#X obj 408 139 mtof;
#X obj 443 160 mtof;
#X obj 477 139 mtof;
#X obj 513 160 mtof;
#X obj 551 138 mtof;
#X obj 408 223 osc~;
#X obj 448 224 osc~;
#X obj 487 223 osc~;
#X obj 526 227 osc~;
#X obj 569 229 osc~;
#X connect 0 0 5 0;
#X connect 0 0 7 1;
#X connect 0 0 56 0;
#X connect 1 0 11 0;
#X connect 1 0 8 1;
#X connect 1 0 6 2;
#X connect 1 0 56 1;
#X connect 2 0 12 0;
#X connect 2 0 9 1;
#X connect 2 0 7 2;
#X connect 2 0 56 2;
#X connect 3 0 13 0;
#X connect 3 0 10 1;
#X connect 3 0 8 2;
#X connect 3 0 56 3;
#X connect 4 0 14 0;
#X connect 4 0 9 2;
#X connect 4 0 56 4;
#X connect 5 0 38 0;
#X connect 5 1 11 0;
#X connect 6 0 0 0;
#X connect 7 0 1 0;
#X connect 8 0 2 0;
#X connect 9 0 3 0;
#X connect 10 0 4 0;
#X connect 11 0 47 0;
#X connect 12 0 48 0;
#X connect 13 0 49 0;
#X connect 14 0 50 0;
#X connect 15 0 58 1;
#X connect 16 0 0 0;
#X connect 16 0 4 0;
#X connect 16 0 3 0;
#X connect 16 0 2 0;
#X connect 16 0 1 0;
#X connect 17 0 16 0;
#X connect 18 0 26 0;
#X connect 18 1 26 1;
#X connect 23 0 24 0;
#X connect 24 1 18 0;
#X connect 25 0 23 3;
#X connect 26 0 54 0;
#X connect 28 0 44 0;
#X connect 29 0 33 0;
#X connect 30 0 32 0;
#X connect 31 0 32 0;
#X connect 31 1 32 1;
#X connect 32 0 15 0;
#X connect 33 0 34 0;
#X connect 33 1 34 1;
#X connect 34 0 31 0;
#X connect 37 0 6 1;
#X connect 38 0 23 0;
#X connect 38 0 60 0;
#X connect 39 0 58 0;
#X connect 41 0 55 0;
#X connect 47 0 23 0;
#X connect 47 0 61 0;
#X connect 48 0 23 0;
#X connect 48 0 62 0;
#X connect 49 0 23 0;
#X connect 49 0 63 0;
#X connect 50 0 23 0;
#X connect 50 0 64 0;
#X connect 52 0 53 0;
#X connect 53 0 32 0;
#X connect 54 0 28 0;
#X connect 55 0 0 0;
#X connect 55 1 1 0;
#X connect 55 2 2 0;
#X connect 55 3 3 0;
#X connect 55 4 4 0;
#X connect 56 0 43 0;
#X connect 56 0 45 0;
#X connect 57 0 18 1;
#X connect 58 0 6 0;
#X connect 58 0 10 0;
#X connect 58 0 9 0;
#X connect 58 0 8 0;
#X connect 58 0 7 0;
#X connect 58 0 25 0;
#X connect 58 0 57 0;
#X connect 59 0 15 0;
#X connect 60 0 65 0;
#X connect 61 0 66 0;
#X connect 62 0 67 0;
#X connect 63 0 68 0;
#X connect 64 0 69 0;
#X connect 65 0 70 0;
#X connect 66 0 71 0;
#X connect 67 0 72 0;
#X connect 68 0 73 0;
#X connect 69 0 74 0;
#X coords 0 -1 1 1 280 120 2 55 45;
